<svg viewBox="0 0 1024 1024" fill="#33FFFF" class="icon" version="1.1" xmlns="http://www.w3.org/2000/svg"><g id="SVGRepo_bgCarrier" stroke-width="0"></g><g id="SVGRepo_tracerCarrier" stroke-linecap="round" stroke-linejoin="round"></g><g id="SVGRepo_iconCarrier"><path d="M208.508 583.99c-4.406 0-8.078-3.578-8.078-7.998 0-4.422 3.5-8 7.92-8h0.156c4.42 0 8 3.578 8 8a7.994 7.994 0 0 1-7.998 7.998z" fill=""></path><path d="M999.936 767.966H56.058c-4.422 0-8-3.578-8-8V152.046c0-4.422 3.578-8 8-8h943.876c4.422 0 8 3.578 8 8v607.92a7.992 7.992 0 0 1-7.998 8z m-935.878-15.998h927.88V160.044H64.058v591.924z" fill=""></path><path d="M775.964 416.012c-22.058 0-39.994-17.944-39.994-39.994 0-7.016 1.844-13.936 5.342-20.006a8.004 8.004 0 0 1 13.876 7.984 24.02 24.02 0 0 0-3.218 12.022c0 13.232 10.764 23.996 23.996 23.996s23.998-10.764 23.998-23.996a24.12 24.12 0 0 0-3.204-11.966 8 8 0 0 1 2.984-10.914c3.78-2.202 8.702-0.882 10.92 2.976a40.19 40.19 0 0 1 5.296 19.904c0 22.05-17.934 39.994-39.996 39.994z" fill=""></path><path d="M775.964 384.016a7.992 7.992 0 0 1-7.998-7.998V216.04c0-4.422 3.576-8 7.998-8s8 3.578 8 8v159.978a7.994 7.994 0 0 1-8 7.998z" fill=""></path><path d="M855.956 272.032h-63.992a7.994 7.994 0 0 1-7.998-8 7.994 7.994 0 0 1 7.998-7.998h55.994v-15.998h-55.994a7.994 7.994 0 0 1-7.998-8 7.994 7.994 0 0 1 7.998-7.998h63.992a7.994 7.994 0 0 1 7.998 7.998v31.996c0 4.422-3.578 8-7.998 8zM919.948 304.028h-79.99c-4.422 0-8-3.578-8-8a7.994 7.994 0 0 1 8-7.998h79.99a7.994 7.994 0 0 1 7.998 7.998c0 4.422-3.578 8-7.998 8zM919.948 272.032h-31.996c-4.422 0-8-3.578-8-8a7.994 7.994 0 0 1 8-7.998h31.996a7.994 7.994 0 0 1 7.998 7.998c0 4.422-3.578 8-7.998 8z" fill=""></path><path d="M919.948 304.028a7.976 7.976 0 0 1-5.656-2.344l-15.998-15.998a7.996 7.996 0 0 1 0-11.31l15.998-15.998a7.996 7.996 0 1 1 11.31 11.31l-10.342 10.342 10.342 10.344a7.996 7.996 0 0 1-5.654 13.654zM208.04 623.984c-26.464 0-47.994-21.528-47.994-47.992 0-26.466 21.53-47.994 47.994-47.994s47.994 21.528 47.994 47.994-21.53 47.992-47.994 47.992z m0-79.988c-17.654 0-31.996 14.342-31.996 31.996 0 17.652 14.342 31.994 31.996 31.994 17.638 0 31.996-14.342 31.996-31.994 0-17.654-14.358-31.996-31.996-31.996zM256.034 535.996a7.95 7.95 0 0 1-5.906-2.61 7.982 7.982 0 0 1 0.516-11.294c184.524-168.486 459.518-138.326 462.268-138.022a7.99 7.99 0 0 1 7 8.876c-0.516 4.366-4.156 7.498-8.876 7.014-2.624-0.32-270.542-29.536-449.612 133.944a7.958 7.958 0 0 1-5.39 2.092z" fill=""></path><path d="M679.976 416.012a8.008 8.008 0 0 1-7.154-4.42 8.006 8.006 0 0 1 3.578-10.734l31.996-15.998a8.004 8.004 0 0 1 10.732 3.578 8.004 8.004 0 0 1-3.578 10.732l-31.996 15.998a8.066 8.066 0 0 1-3.578 0.844z" fill=""></path><path d="M711.972 400.014c-1.204 0-2.42-0.274-3.576-0.844l-31.996-15.998a8.004 8.004 0 0 1-3.578-10.732c1.984-3.954 6.78-5.514 10.732-3.578l31.996 15.998a8.006 8.006 0 0 1 3.578 10.734 8.008 8.008 0 0 1-7.156 4.42zM496.002 296.028a7.976 7.976 0 0 1-5.656-2.344l-31.996-31.996a8 8 0 0 1 11.312-11.31l31.996 31.996a7.996 7.996 0 0 1-5.656 13.654z" fill=""></path><path d="M464.006 296.028a7.996 7.996 0 0 1-5.656-13.654l31.996-31.996a8 8 0 0 1 11.312 11.31l-31.996 31.996a7.976 7.976 0 0 1-5.656 2.344z" fill=""></path><path d="M480.004 320.026c-26.464 0-47.994-21.53-47.994-47.994s21.53-47.994 47.994-47.994 47.994 21.53 47.994 47.994-21.53 47.994-47.994 47.994z m0-79.99c-17.638 0-31.996 14.35-31.996 31.996s14.358 31.996 31.996 31.996c17.654 0 31.996-14.35 31.996-31.996s-14.342-31.996-31.996-31.996zM264.016 368.018a7.986 7.986 0 0 1-5.656-2.342l-47.994-47.994a7.996 7.996 0 1 1 11.31-11.31l47.994 47.992a8 8 0 0 1-5.654 13.654z" fill=""></path><path d="M216.022 368.018a8 8 0 0 1-5.656-13.654l47.994-47.992a8 8 0 0 1 11.312 11.31l-47.994 47.994a7.982 7.982 0 0 1-5.656 2.342zM447.992 647.982a7.976 7.976 0 0 1-5.656-2.344l-31.996-31.996a8 8 0 0 1 11.312-11.31l31.996 31.996a7.996 7.996 0 0 1-5.656 13.654z" fill=""></path><path d="M415.996 647.982a7.996 7.996 0 0 1-5.656-13.654l31.996-31.996a8 8 0 0 1 11.312 11.31l-31.996 31.996a7.968 7.968 0 0 1-5.656 2.344z" fill=""></path><path d="M432.01 671.978c-26.464 0-47.994-21.53-47.994-47.994s21.53-47.992 47.994-47.992 47.994 21.528 47.994 47.992-21.53 47.994-47.994 47.994z m0-79.99c-17.654 0-31.996 14.344-31.996 31.996 0 17.654 14.342 31.996 31.996 31.996 17.638 0 31.996-14.342 31.996-31.996 0-17.652-14.358-31.996-31.996-31.996zM647.982 591.988a7.976 7.976 0 0 1-5.656-2.344l-47.994-47.992a8 8 0 1 1 11.312-11.312l47.992 47.994a7.996 7.996 0 0 1-5.654 13.654z" fill=""></path><path d="M599.988 591.988a7.996 7.996 0 0 1-5.656-13.654l47.994-47.994a8 8 0 0 1 11.31 11.312l-47.992 47.992a7.964 7.964 0 0 1-5.656 2.344zM831.958 663.98a7.976 7.976 0 0 1-5.654-2.344l-31.996-31.996a7.996 7.996 0 1 1 11.31-11.31l31.996 31.994a8 8 0 0 1-5.656 13.656z" fill=""></path><path d="M799.962 663.98a8 8 0 0 1-5.656-13.656l31.996-31.994a7.996 7.996 0 1 1 11.31 11.31l-31.996 31.996a7.964 7.964 0 0 1-5.654 2.344z" fill=""></path><path d="M815.96 687.976c-26.466 0-47.994-21.528-47.994-47.994 0-26.464 21.528-47.994 47.994-47.994 26.464 0 47.992 21.53 47.992 47.994 0.002 26.468-21.526 47.994-47.992 47.994z m0-79.99c-17.638 0-31.996 14.342-31.996 31.996s14.358 31.996 31.996 31.996c17.636 0 31.996-14.342 31.996-31.996s-14.358-31.996-31.996-31.996z" fill=""></path><path d="M527.998 96.052h-31.996c-4.422 0-8-3.576-8-7.998V56.058a7.994 7.994 0 0 1 8-7.998h31.996a7.994 7.994 0 0 1 7.998 7.998v31.996a7.994 7.994 0 0 1-7.998 7.998zM504 80.056h15.998v-15.998H504v15.998z" fill=""></path><path d="M1015.934 160.044H8.064a7.994 7.994 0 0 1-7.998-7.998V88.054a7.994 7.994 0 0 1 7.998-7.998h1007.87c4.422 0 8 3.576 8 7.998v63.992a7.994 7.994 0 0 1-8 7.998zM16.064 144.046h991.872V96.052H16.064v47.994z" fill=""></path><path d="M967.942 128.048H56.058c-4.422 0-8-3.576-8-7.998s3.578-8 8-8H967.94c4.42 0 7.998 3.578 7.998 8s-3.576 7.998-7.996 7.998z" fill=""></path><path d="M727.972 975.94a8.176 8.176 0 0 1-3.578-0.844l-215.972-107.986a8.002 8.002 0 0 1-3.578-10.732 8.008 8.008 0 0 1 10.734-3.578l215.97 107.986a8.002 8.002 0 0 1 3.578 10.732 8.02 8.02 0 0 1-7.154 4.422zM791.962 975.94a8.16 8.16 0 0 1-3.576-0.844l-279.964-139.982a8 8 0 0 1-3.578-10.732 8.008 8.008 0 0 1 10.734-3.578l279.962 139.982c3.954 1.968 5.544 6.782 3.578 10.732a8.02 8.02 0 0 1-7.156 4.422z" fill=""></path><path d="M791.962 975.94h-63.99c-4.422 0-8-3.578-8-7.998 0-4.422 3.578-8 8-8h63.99c4.422 0 8 3.578 8 8a7.994 7.994 0 0 1-8 7.998z" fill=""></path><path d="M296.042 975.94a8.02 8.02 0 0 1-7.17-4.422 8 8 0 0 1 3.578-10.732L508.422 852.8a8.004 8.004 0 0 1 10.732 3.578 7.988 7.988 0 0 1-3.576 10.732l-215.972 107.986a8.072 8.072 0 0 1-3.564 0.844zM232.05 975.94a8.024 8.024 0 0 1-7.17-4.422 8 8 0 0 1 3.578-10.732l279.964-139.982a8.004 8.004 0 0 1 10.732 3.578 7.988 7.988 0 0 1-3.576 10.732l-279.964 139.982a8.072 8.072 0 0 1-3.564 0.844z" fill=""></path><path d="M296.028 975.94h-63.992a7.994 7.994 0 0 1-7.998-7.998c0-4.422 3.578-8 7.998-8h63.992c4.422 0 8 3.578 8 8a7.996 7.996 0 0 1-8 7.998z" fill=""></path><path d="M496.002 843.958c-4.422 0-8-3.578-8-8v-75.99a7.994 7.994 0 0 1 8-7.998 7.994 7.994 0 0 1 7.998 7.998v75.99c0 4.42-3.578 8-7.998 8z" fill=""></path><path d="M527.998 843.958c-4.422 0-8-3.578-8-8v-75.99a7.994 7.994 0 0 1 8-7.998 7.994 7.994 0 0 1 7.998 7.998v75.99c0 4.42-3.578 8-7.998 8z" fill=""></path><path d="M527.998 975.94c-4.422 0-8-3.578-8-7.998v-99.988a7.994 7.994 0 0 1 8-7.998 7.994 7.994 0 0 1 7.998 7.998v99.988a7.994 7.994 0 0 1-7.998 7.998z" fill=""></path><path d="M527.998 975.94h-31.996c-4.422 0-8-3.578-8-7.998 0-4.422 3.578-8 8-8h31.996a7.994 7.994 0 0 1 7.998 8 7.994 7.994 0 0 1-7.998 7.998z" fill=""></path><path d="M496.002 975.94c-4.422 0-8-3.578-8-7.998v-99.988a7.994 7.994 0 0 1 8-7.998 7.994 7.994 0 0 1 7.998 7.998v99.988a7.994 7.994 0 0 1-7.998 7.998z" fill=""></path></g></svg>